<svg width="458" height="39" viewBox="0 0 458 39" fill="none" xmlns="http://www.w3.org/2000/svg">
<path d="M15.006 10.3C12.464 10.3 12.464 15.138 15.006 15.138H45.92C51.824 15.138 54.366 18.418 54.366 23.666V30.472C54.366 35.72 51.824 39 45.92 39H0.82V29.488H40.18C42.804 29.488 42.804 24.65 40.18 24.65H9.266C3.362 24.65 0.82 21.37 0.82 16.122V9.316C0.82 4.068 3.362 0.787998 9.266 0.787998H54.366V10.3H15.006ZM68.3758 24.65V26.618C68.3758 28.176 69.1958 29.488 70.9178 29.488H109.622V39H64.4398C58.5358 39 55.9938 35.72 55.9938 30.472V9.316C55.9938 4.068 58.5358 0.787998 64.4398 0.787998H109.622V10.3H70.9178C69.1958 10.3 68.3758 11.612 68.3758 13.17V15.138H109.54V24.65H68.3758ZM123.63 0.787998V26.618C123.63 28.176 124.45 29.488 126.172 29.488H164.794V39H119.694C113.79 39 111.248 35.72 111.248 30.472V0.787998H123.63ZM197.14 29.488H200.174L217.394 0.787998H231.58L209.604 37.77C209.112 38.59 208.374 39 207.472 39H174.508C173.606 39 172.868 38.59 172.376 37.77L150.4 0.787998H164.586L181.806 29.488H184.84V0.787998H197.14V29.488ZM264.449 39H279.455L257.479 2.018C256.987 1.198 256.249 0.787998 255.347 0.787998H243.375C242.473 0.787998 241.735 1.198 241.243 2.018L219.267 39H234.273L238.373 31.456H260.349L264.449 39ZM243.539 21.944L249.361 11.202L255.183 21.944H243.539ZM335.318 39H350.324L328.348 2.018C327.856 1.198 327.118 0.787998 326.216 0.787998H314.244C313.342 0.787998 312.604 1.198 312.112 2.018L290.136 39H305.142L309.242 31.456H331.218L335.318 39ZM314.408 21.944L320.23 11.202L326.052 21.944H314.408ZM393.461 0.787998C399.365 0.787998 401.907 4.068 401.907 9.316V13.826C401.907 16.45 400.431 18.582 397.069 19.812C400.595 21.37 401.907 23.912 401.907 26.536V30.472C401.907 35.72 399.365 39 393.461 39H348.279V0.787998H393.461ZM360.661 10.3V15.138H387.639C390.345 15.138 390.345 10.3 387.639 10.3H360.661ZM387.557 29.488C390.345 29.488 390.345 24.732 387.557 24.732H360.661V29.488H387.557ZM403.533 39V0.787998H448.715C454.619 0.787998 457.161 4.068 457.161 9.316V30.472C457.161 35.72 454.619 39 448.715 39H403.533ZM415.915 10.3V29.488H442.237C443.959 29.488 444.779 28.176 444.779 26.618V13.17C444.779 11.612 443.959 10.3 442.237 10.3H415.915Z" fill="black"/>
</svg>
